<svg xmlns="http://www.w3.org/2000/svg" viewBox="0 0 512 512">
  <circle cx="256" cy="256" r="256" fill="#FFDC00"/>
  <path d="M511.47 272.276L328.334 89.14 257 315.5l148.395 148.395c60.437-43.508 101.123-112.713 106.075-191.619z" fill="#FFC000"/>
  <rect x="149.64" y="189.94" width="213" height="174.76" fill="#754C24"/>
  <rect x="255.95" y="189.94" width="106.69" height="174.76" fill="#603813"/>
  <path d="M369.455 353.514l-71.992-9.209c-8.838-1.131-15.459-8.653-15.459-17.562v-32.654h-52.007v32.654c0 8.91-6.621 16.432-15.459 17.562l-71.992 9.209c-22.037 2.819-38.547 21.575-38.547 43.792v64.688C146.509 493.414 199.081 512 256 512s109.491-18.586 152.001-50.007v-64.688c0-22.217-16.509-40.972-38.546-43.791z" fill="#F2D99C"/>
  <path d="M305.162 299.136l-14.163 7.626c-21.763 11.718-47.957 11.718-69.72 0l-14.163-7.626c-26.154-14.083-42.464-41.389-42.464-71.094v-87.359h182.973v87.359c.001 29.705-16.308 57.011-42.463 71.094z" fill="#FFECB3"/>
  <path d="M369.455 353.514l-60.93-7.794C295.389 359.732 276.723 368.5 256 368.5s-39.389-8.768-52.525-22.781l-60.93 7.794c-22.037 2.819-38.547 21.575-38.547 43.792v64.688C146.509 493.414 199.081 512 256 512s109.491-18.586 152.001-50.007v-64.688c0-22.217-16.509-40.972-38.546-43.791z" fill="#008CC3"/>
  <path d="M255.762 60.926c-58.86.204-106.123 48.795-106.123 107.655v148.72l12.472-29.597c3.59-8.519 5.439-17.67 5.439-26.914v-59.537c95.284-12.072 130.345-55.878 130.345-55.878s12.907 30.69 46.834 55.988v59.427c0 9.244 1.849 18.395 5.439 26.914l12.472 29.597V167.425c.001-58.943-47.785-106.703-106.686-106.499z" fill="#8C6239"/>
</svg>
