<svg xmlns="http://www.w3.org/2000/svg" width="24" height="24" viewBox="0 0 56 56">
    <rect width="56" height="52" rx="8" fill="#3ABCA7"/>
    <g fill="#FFFFFF">
        <rect x="26" y="12" width="20" height="2" rx="1"/>
        <rect x="26" y="26" width="20" height="2" rx="1"/>
        <rect x="26" y="40" width="20" height="2" rx="1"/>
        <path d="M13.07 17a1 1 0 0 1-.6-.2l-4.57-3.43a1 1 0 1 1 1.2-1.6l3.82 2.87 6.25-7.29a1 1 0 1 1 1.52 1.3l-6.86 8a1 1 0 0 1-.76.35z"/>
        <path d="M13.07 31a1 1 0 0 1-.6-.2l-4.57-3.43a1 1 0 1 1 1.2-1.6l3.82 2.87 6.25-7.29a1 1 0 1 1 1.52 1.3l-6.86 8a1 1 0 0 1-.76.35z"/>
        <path d="M13.07 46a1 1 0 0 1-.6-.2l-4.57-3.43a1 1 0 1 1 1.2-1.6l3.82 2.87 6.25-7.29a1 1 0 1 1 1.52 1.3l-6.86 8a1 1 0 0 1-.76.35z"/>
    </g>
    <path fill="#EFC41A" d="M53.76 56H30.07a1 1 0 0 1-.87-1.5l11.85-20.31a1 1 0 0 1 1.74 0l11.85 20.31a1 1 0 0 1-.87 1.5z"/>
    <g fill="#FFFFFF">
        <rect x="41" y="39" width="2" height="10" rx="1"/>
        <circle cx="42" cy="52" r="1"/>
    </g>
</svg>
