<svg
    xmlns="http://www.w3.org/2000/svg"
    width="512"
    height="512"
    viewBox="0 0 512 512">
    <path fill="#FFDC00" d="M512 256A256 256 0 0 1 0 256 256 256 0 0 1 512 256z"/>
    <path fill="#FFC000" d="M512 256c0-8.33-.412-16.563-1.19-24.69L356.5 77l-201 352.333 81.996 81.996C243.608 511.766 249.776 512 256 512c141.385 0 256-114.615 256-256z"/>
    <path fill="#333333" d="M155.5 77H356.5V429.33H155.5z"/>
    <path fill="#1A1A1A" d="M255.67 77H356.5V429.33H255.67z"/>
    <path fill="#FF6838" d="M172 101.5H340V383.5H172z"/>
    <path fill="#FFB344" d="M172 101.5H340V383.5H172z"/>
    <path fill="#FF9451" d="M255.67 101.5H340V383.5H255.67z"/>
    <path fill="#FFFFFF" d="M206.81 159.92H256V325.07H206.81z"/>
    <path fill="#E0E0E0" d="M206.81 241H256V325.08H206.81z"/>
    <path fill="#1A1A1A" d="M268.5 404.5a12.5 12.5 0 0 1-25 0 12.5 12.5 0 0 1 25 0z"/>
    <path fill="#000000" d="M256 392c-.113 0-.221.014-.333.017v24.966c.112.003.221.017.333.017 6.904 0 12.5-5.596 12.5-12.5s-5.596-12.5-12.5-12.5z"/>
    <path fill="#0074A3" d="M302.833 169.685l-22.311 22.31 34.497 34.496-108.213.005.001 31.552 108.062-.005-34.961 34.962 22.311 22.31 73.122-73.123z"/>
    <path fill="#005C83" d="M206.806 242.192l.001 15.856 108.062-.005-34.961 34.962 22.311 22.31 73.122-73.123z"/>
</svg>