<svg xmlns="http://www.w3.org/2000/svg" xmlns:xlink="http://www.w3.org/1999/xlink" viewBox="0 0 460 460" width="24" height="24">
    <path fill="#FF5419" d="M230,0C102.975,0 0,102.975 0,230c0,98.967 62.507,183.335 150.196,215.778L447.33,154.523C416.094,64.571 330.588,0 230,0z"/>
    <path fill="#E03A00" d="M447.313,154.521l-86.24,-86.24L21.407,230l116.782,116.781L100,394.5l50.196,51.27C175.058,454.968 201.94,460 230,460c127.025,0 230,-102.975 230,-230C460,203.559 455.524,178.166 447.313,154.521z"/>
    <path fill="#FFEDB5" d="M276.563,87.084l0,-38.803l-46.563,0l-15.521,38.803z"/>
    <path fill="#FFFFFF" d="M183.437,48.281h46.563v38.802h-46.563z"/>
    <path fill="#FFC61B" d="M214.829,371.741l15.171,22.759l131.073,0l0,-326.219l-59.073,0z"/>
    <path fill="#C2FBFF" d="M341.07,129l0,245.5l-111.07,0l-19.53,-249.5z"/>
    <path fill="#71E2F0" d="M341.07,88.28l0,40.72l-111.07,0l-23.34,-40.72z"/>
    <path fill="#FEE187" d="M158,68.281l-58,0l0,326.219l130,0l0,-22.759z"/>
    <path fill="#FFFFFF" d="M230,125l0,249.5l-111.07,0l0,-245.5z"/>
    <path fill="#C2FBFF" d="M118.93,88.28h111.07v40.72h-111.07z"/>
    <path fill="#FEE187" d="M230,68.281l-15.173,20l15.173,20l72,0l0,-40z"/>
    <path fill="#FFEDB5" d="M158,68.281h72v40h-72z"/>
    <path fill="#C2FBFF" d="M138.927,287.5l0,20l91.073,0l9.5,-10l-9.5,-10z"/>
    <path fill="#71E2F0" d="M230,287.5h51.073v20h-51.073z"/>
    <path fill="#71E2F0" d="M301.073,287.5h20v20h-20z"/>
    <path fill="#C2FBFF" d="M138.927,331l0,20l91.073,0l9.5,-10l-9.5,-10z"/>
    <path fill="#71E2F0" d="M230,331h51.073v20h-51.073z"/>
    <path fill="#71E2F0" d="M301.073,331h20v20h-20z"/>
    <path fill="#C2FBFF" d="M138.927,172.5l0,-20l91.073,0l9.5,10l-9.5,10z"/>
    <path fill="#71E2F0" d="M230,152.5h51.073v20h-51.073z"/>
    <path fill="#71E2F0" d="M301.073,152.5h20v20h-20z"/>
    <path fill="#FEE187" d="M100,265l-78.593,-35l78.593,-18.667z"/>
    <path fill="#FFFFFF" d="M100,230l-78.593,0l78.593,-35z"/>
    <path fill="#121149" d="M341.411,264.999l-241.411,0.001l0,-35l251.411,-18.667z"/>
    <path fill="#366796" d="M351.411,230l-251.411,0l0,-35l241.411,0z"/>
    <path fill="#FFFFFF" d="M230,219.474h121.411v20h-121.411z"/>
    <path fill="#FEE187" d="M431.411,239.47l0,-18.94l-50,-0.004l0,18.948z"/>
    <path fill="#121149" d="M401.64,265l-40,0l-10,-53.667l50,18.667z"/>
    <path fill="#366796" d="M401.64,230l-50,0l10,-35l40,0z"/>
    <path fill="#FEE187" d="M341.411,264.999l0,-34.999l5,-9.334l15,9.334l0,34.999z"/>
    <path fill="#FFFFFF" d="M341.411,195.002h20v35h-20z"/>
</svg>
