<svg
    xmlns="http://www.w3.org/2000/svg"
    width="24"
    height="24"
    viewBox="0 0 511 511.99997">
    <path fill="#49c3e0" d="M426 68.8H86.1c-18 0-32.6 14.6-32.6 32.6v377c0 18 14.6 32.6 32.6 32.6H426c18 0 32.6-14.6 32.6-32.6v-377c0-18-14.6-32.6-32.6-32.6z"/>
    <path fill="#00a5c6" d="M116.1 68.8v37.7c0 26.8 21.8 48.6 48.6 48.6h182.6c26.8 0 48.6-21.8 48.6-48.6V68.8z"/>
    <path fill="#efedee" d="M94.5 103.7h323.1v355.5H94.5z"/>
    <path fill="#3ac7b4" d="M153.7 219.8c-2 0-4-.4-5.9-1.3-5-2.3-8.2-7.2-8.2-12.8v-13.1c0-4.3 3.5-7.7 7.7-7.7 4.3 0 7.7 3.5 7.7 7.7v10.1c10.2-8.3 26.2-19 48.3-26.4 4-1.3 8.4.8 9.8 4.9 1.3 4-.8 8.4-4.9 9.8-21.4 7.1-36.6 17.7-45.5 25.4-2.6 2.2-5.8 3.4-9.1 3.4z"/>
    <path fill="#3a484a" d="M364.7 205.6h-101.1c-4.3 0-7.7-3.5-7.7-7.7 0-4.3 3.5-7.7 7.7-7.7h101.1c4.3 0 7.7 3.5 7.7 7.7 0 4.3-3.5 7.7-7.7 7.7z"/>
    <path fill="#3ac7b4" d="M153.7 283.2c-2 0-4-.4-5.9-1.3-5-2.3-8.2-7.2-8.2-12.8v-13.1c0-4.3 3.5-7.7 7.7-7.7 4.3 0 7.7 3.5 7.7 7.7v10.1c10.2-8.3 26.2-19 48.3-26.4 4-1.4 8.4.8 9.8 4.9 1.3 4-.8 8.4-4.9 9.8-21.4 7.1-36.6 17.8-45.5 25.4-2.6 2.2-5.8 3.4-9.1 3.4z"/>
    <path fill="#3a484a" d="M364.7 269h-101.1c-4.3 0-7.7-3.5-7.7-7.7s3.5-7.7 7.7-7.7h101.1c4.3 0 7.7 3.5 7.7 7.7s-3.5 7.7-7.7 7.7z"/>
    <path fill="#3ac7b4" d="M153.7 346.7c-2 0-4-.4-5.9-1.3-5-2.3-8.2-7.2-8.2-12.8v-13.1c0-4.3 3.5-7.7 7.7-7.7 4.3 0 7.7 3.5 7.7 7.7v10.1c10.2-8.3 26.2-19 48.3-26.4 4-1.4 8.4.8 9.8 4.9 1.3 4-.8 8.4-4.9 9.8-21.4 7.1-36.6 17.7-45.5 25.4-2.6 2.2-5.8 3.4-9.1 3.4z"/>
    <path fill="#3a484a" d="M364.7 332.5h-101.1c-4.3 0-7.7-3.5-7.7-7.7 0-4.3 3.5-7.7 7.7-7.7h101.1c4.3 0 7.7 3.5 7.7 7.7 0 4.3-3.5 7.7-7.7 7.7z"/>
    <path fill="#3ac7b4" d="M153.7 410.1c-2 0-4-.4-5.9-1.3-5-2.3-8.2-7.2-8.2-12.8v-13.1c0-4.3 3.5-7.7 7.7-7.7 4.3 0 7.7 3.5 7.7 7.7v10.1c10.2-8.3 26.2-19 48.3-26.4 4-1.3 8.4.8 9.8 4.9 1.3 4.1-.8 8.4-4.9 9.8-21.4 7.1-36.6 17.8-45.5 25.4-2.6 2.2-5.8 3.4-9.1 3.4z"/>
    <path fill="#3a484a" d="M364.7 395.9h-101.1c-4.3 0-7.7-3.5-7.7-7.7 0-4.3 3.5-7.7 7.7-7.7h101.1c4.3 0 7.7 3.5 7.7 7.7 0 4.3-3.5 7.7-7.7 7.7z"/>
    <path fill="#d4d2d3" d="M116.1 103.7v2.8c0 26.8 21.8 48.6 48.6 48.6h182.6c26.8 0 48.6-21.8 48.6-48.6v-2.8z"/>
    <path fill="#bab8b9" d="M347.4 42.3h-50.5c0-.8.1-1.6.1-2.4 0-22.6-18.3-40.9-40.9-40.9-22.6 0-40.9 18.3-40.9 40.9 0 .8 0 1.6.1 2.4h-50.5c-9.8 0-17.7 7.9-17.7 17.7v46.4c0 9.8 7.9 17.7 17.7 17.7h182.6c9.8 0 17.7-7.9 17.7-17.7V60c0-9.8-7.9-17.7-17.7-17.7z"/>
    <path fill="#d4d2d3" d="M269.5 39.9c0 7.4-6 13.4-13.4 13.4s-13.4-6-13.4-13.4c0-7.4 6-13.4 13.4-13.4s13.4 6 13.4 13.4z"/>
    <path fill="#3a484a" d="M190.9 93.1c-4.3 0-7.7-3.5-7.7-7.7V73.6c0-4.3 3.5-7.7 7.7-7.7 4.3 0 7.7 3.5 7.7 7.7v11.8c0 4.3-3.5 7.7-7.7 7.7z"/>
    <path fill="#3a484a" d="M321.2 93.1c-4.3 0-7.7-3.5-7.7-7.7V73.6c0-4.3 3.5-7.7 7.7-7.7 4.3 0 7.7 3.5 7.7 7.7v11.8c0 4.3-3.5 7.7-7.7 7.7z"/>
    <path fill="#3a484a" d="M256.1 99.4c-8.5 0-16.5-3.6-21.9-9.8-2.8-3.2-2.5-8.1.7-10.9 3.2-2.8 8.1-2.5 10.9.7 2.5 2.8 6.2 4.5 10.3 4.5 4 0 7.8-1.6 10.3-4.5 2.8-3.2 7.7-3.5 10.9-.7 3.2 2.8 3.5 7.7.7 10.9-5.4 6.2-13.4 9.8-21.9 9.8z"/>
</svg>